<mxfile host="Electron" agent="Mozilla/5.0 (X11; Linux x86_64) AppleWebKit/537.36 (KHTML, like Gecko) draw.io/24.7.5 Chrome/126.0.6478.183 Electron/31.3.0 Safari/537.36" version="24.7.5">
  <diagram name="Pagina-1" id="iudTJHdZUR0WALGNm4tG">
    <mxGraphModel dx="2226" dy="878" grid="1" gridSize="10" guides="1" tooltips="1" connect="1" arrows="1" fold="1" page="1" pageScale="1" pageWidth="850" pageHeight="1100" math="0" shadow="0">
      <root>
        <mxCell id="0" />
        <mxCell id="1" parent="0" />
        <mxCell id="zIWtXSJmv5g0xzUhmJKU-38" value="&lt;font style=&quot;font-size: 11px;&quot;&gt;uni.climatemonitor&lt;/font&gt;" style="shape=folder;fontStyle=1;tabWidth=110;tabHeight=30;tabPosition=left;html=1;boundedLbl=1;labelInHeader=1;container=1;collapsible=0;whiteSpace=wrap;" vertex="1" parent="1">
          <mxGeometry x="-430" y="450" width="350" height="130" as="geometry" />
        </mxCell>
        <mxCell id="zIWtXSJmv5g0xzUhmJKU-39" value="" style="html=1;strokeColor=none;resizeWidth=1;resizeHeight=1;fillColor=none;part=1;connectable=0;allowArrows=0;deletable=0;whiteSpace=wrap;" vertex="1" parent="zIWtXSJmv5g0xzUhmJKU-38">
          <mxGeometry width="350" height="91" relative="1" as="geometry">
            <mxPoint y="30" as="offset" />
          </mxGeometry>
        </mxCell>
        <mxCell id="zIWtXSJmv5g0xzUhmJKU-3" value="Client" style="swimlane;fontStyle=1;align=center;verticalAlign=top;childLayout=stackLayout;horizontal=1;startSize=26;horizontalStack=0;resizeParent=1;resizeParentMax=0;resizeLast=0;collapsible=1;marginBottom=0;whiteSpace=wrap;html=1;" vertex="1" parent="zIWtXSJmv5g0xzUhmJKU-38">
          <mxGeometry x="60.0009756097561" y="50" width="230" height="60" as="geometry" />
        </mxCell>
        <mxCell id="zIWtXSJmv5g0xzUhmJKU-5" value="" style="line;strokeWidth=1;fillColor=none;align=left;verticalAlign=middle;spacingTop=-1;spacingLeft=3;spacingRight=3;rotatable=0;labelPosition=right;points=[];portConstraint=eastwest;strokeColor=inherit;" vertex="1" parent="zIWtXSJmv5g0xzUhmJKU-3">
          <mxGeometry y="26" width="230" height="8" as="geometry" />
        </mxCell>
        <mxCell id="zIWtXSJmv5g0xzUhmJKU-6" value="+ updateMe(ClimateParameter cp): void" style="text;strokeColor=none;fillColor=none;align=left;verticalAlign=top;spacingLeft=4;spacingRight=4;overflow=hidden;rotatable=0;points=[[0,0.5],[1,0.5]];portConstraint=eastwest;whiteSpace=wrap;html=1;" vertex="1" parent="zIWtXSJmv5g0xzUhmJKU-3">
          <mxGeometry y="34" width="230" height="26" as="geometry" />
        </mxCell>
        <mxCell id="zIWtXSJmv5g0xzUhmJKU-35" value="&lt;font style=&quot;font-size: 8px;&quot;&gt;uni.climatemonitor.common&lt;/font&gt;" style="shape=folder;fontStyle=1;tabWidth=110;tabHeight=30;tabPosition=left;html=1;boundedLbl=1;labelInHeader=1;container=1;collapsible=0;whiteSpace=wrap;" vertex="1" parent="1">
          <mxGeometry x="20" y="40" width="790" height="560" as="geometry" />
        </mxCell>
        <mxCell id="zIWtXSJmv5g0xzUhmJKU-36" value="" style="html=1;strokeColor=none;resizeWidth=1;resizeHeight=1;fillColor=none;part=1;connectable=0;allowArrows=0;deletable=0;whiteSpace=wrap;" vertex="1" parent="zIWtXSJmv5g0xzUhmJKU-35">
          <mxGeometry width="789.9999999999999" height="392" relative="1" as="geometry">
            <mxPoint y="30" as="offset" />
          </mxGeometry>
        </mxCell>
        <mxCell id="zIWtXSJmv5g0xzUhmJKU-33" value="&lt;font style=&quot;font-size: 9px;&quot;&gt;uni.climatemonitor.server&lt;/font&gt;" style="shape=folder;fontStyle=1;tabWidth=110;tabHeight=30;tabPosition=left;html=1;boundedLbl=1;labelInHeader=1;container=1;collapsible=0;whiteSpace=wrap;" vertex="1" parent="1">
          <mxGeometry x="-580" y="10" width="560" height="400" as="geometry" />
        </mxCell>
        <mxCell id="zIWtXSJmv5g0xzUhmJKU-34" value="" style="html=1;strokeColor=none;resizeWidth=1;resizeHeight=1;fillColor=none;part=1;connectable=0;allowArrows=0;deletable=0;whiteSpace=wrap;" vertex="1" parent="zIWtXSJmv5g0xzUhmJKU-33">
          <mxGeometry width="560" height="280" relative="1" as="geometry">
            <mxPoint y="30" as="offset" />
          </mxGeometry>
        </mxCell>
        <mxCell id="zIWtXSJmv5g0xzUhmJKU-1" value="&lt;p style=&quot;margin:0px;margin-top:4px;text-align:center;&quot;&gt;&lt;font style=&quot;font-size: 12px;&quot; face=&quot;Helvetica&quot;&gt;&lt;i&gt;&amp;lt;&amp;lt;Interface&amp;gt;&amp;gt;&lt;/i&gt;&lt;br&gt;&lt;b&gt;IDatabaseService&lt;/b&gt;&lt;/font&gt;&lt;/p&gt;&lt;font style=&quot;font-size: 12px;&quot;&gt;&lt;br&gt;&lt;/font&gt;&lt;hr size=&quot;1&quot; style=&quot;border-style:solid;&quot;&gt;&lt;p style=&quot;margin:0px;margin-left:4px;&quot;&gt;&lt;font style=&quot;font-size: 12px;&quot;&gt;&lt;i&gt;+&amp;nbsp;&lt;span style=&quot;white-space: pre;&quot;&gt;registerClientForLocation&lt;/span&gt;&lt;span style=&quot;white-space: pre;&quot;&gt;(&lt;/span&gt;&lt;span style=&quot;white-space: pre;&quot;&gt;IClient&lt;/span&gt;&lt;span style=&quot;white-space: pre;&quot;&gt; &lt;/span&gt;&lt;span style=&quot;white-space: pre;&quot;&gt;client&lt;/span&gt;&lt;span style=&quot;white-space: pre;&quot;&gt;, &lt;/span&gt;&lt;span style=&quot;white-space: pre;&quot;&gt;Location&lt;/span&gt;&lt;span style=&quot;white-space: pre;&quot;&gt; &lt;/span&gt;&lt;span style=&quot;white-space: pre;&quot;&gt;l&lt;/span&gt;&lt;span style=&quot;white-space: pre;&quot;&gt;): &lt;/span&gt;&lt;span style=&quot;white-space: pre;&quot;&gt;void&lt;/span&gt;&lt;span style=&quot;white-space: pre;&quot;&gt; &lt;/span&gt;&lt;/i&gt;&lt;/font&gt;&lt;/p&gt;&lt;p style=&quot;margin:0px;margin-left:4px;&quot;&gt;&lt;font style=&quot;font-size: 12px;&quot;&gt;&lt;i&gt;+ unregisterClientForLocation(IClient client): void&lt;br&gt;+ operatorExists(String username): Operator&lt;br&gt;+ pushOperator(Operator o): boolean&lt;br&gt;+ isOperatorEnabledForLocation(String username, Location l): boolean&lt;br&gt;+ getMonitoringCenterForOperator(String username): MonitoringCenter&lt;br&gt;+ filterLocationsByName(String filterOnName): ArrayList&amp;lt;Location&amp;gt;&lt;br&gt;+ filterLocationsByCoordinates(Coordinates coordinates): ArrayList&amp;lt;Location&amp;gt;&lt;br&gt;+ locationExists(Location l): boolean&lt;br&gt;+ getLocationsFromMonitoringCenter(String mc_id): ArrayList&amp;lt;Location&amp;gt;&lt;br&gt;+ getClimateParameterForDate(Location l, LocalDate date): ClimateParameter&lt;br&gt;+ pushClimateParameter(ClimateParameter p): boolean&lt;br&gt;+ getClimateParameterHistory(Location l): ArrayList&amp;lt;ClimateParameter&amp;gt;&lt;br&gt;+ getMonitoringCenterFromName(String name): MonitoringCenter&lt;br&gt;+ pushMonitoringCenter(MonitoringCenter c, ArrayList&amp;lt;String&amp;gt; monitoredAreas): String&lt;br&gt;+ isMonitoringCentersTableEmpty(): boolean&lt;br&gt;+ getAllMonitoringCenters(): ArrayList&amp;lt;MonitoringCenter&amp;gt;&lt;br&gt;+ addLocationToMonitoringCenter(Location l, MonitoringCenter mc): boolean&lt;/i&gt;&lt;/font&gt;&lt;br&gt;&lt;/p&gt;" style="verticalAlign=top;align=left;overflow=fill;html=1;whiteSpace=wrap;" vertex="1" parent="1">
          <mxGeometry x="60" y="80" width="482.6" height="330" as="geometry" />
        </mxCell>
        <mxCell id="zIWtXSJmv5g0xzUhmJKU-2" value="&lt;p style=&quot;margin:0px;margin-top:4px;text-align:center;&quot;&gt;&lt;font style=&quot;font-size: 12px;&quot; face=&quot;Helvetica&quot;&gt;&lt;i&gt;&amp;lt;&amp;lt;Interface&amp;gt;&amp;gt;&lt;/i&gt;&lt;br&gt;&lt;b&gt;IClient&lt;/b&gt;&lt;/font&gt;&lt;/p&gt;&lt;font style=&quot;font-size: 12px;&quot;&gt;&lt;br&gt;&lt;/font&gt;&lt;hr size=&quot;1&quot; style=&quot;border-style:solid;&quot;&gt;&lt;p style=&quot;margin:0px;margin-left:4px;&quot;&gt;&lt;font style=&quot;font-size: 12px;&quot;&gt;&lt;i&gt;+&amp;nbsp;updateMe(ClimateParameter cp): void&lt;/i&gt;&lt;/font&gt;&lt;/p&gt;" style="verticalAlign=top;align=left;overflow=fill;html=1;whiteSpace=wrap;" vertex="1" parent="1">
          <mxGeometry x="210" y="480" width="230" height="80" as="geometry" />
        </mxCell>
        <mxCell id="zIWtXSJmv5g0xzUhmJKU-7" value="" style="endArrow=block;dashed=1;endFill=0;endSize=12;html=1;rounded=0;exitX=0.988;exitY=0.186;exitDx=0;exitDy=0;exitPerimeter=0;entryX=0;entryY=0.25;entryDx=0;entryDy=0;" edge="1" parent="1" source="zIWtXSJmv5g0xzUhmJKU-3" target="zIWtXSJmv5g0xzUhmJKU-2">
          <mxGeometry width="160" relative="1" as="geometry">
            <mxPoint x="230" y="670" as="sourcePoint" />
            <mxPoint x="390" y="670" as="targetPoint" />
          </mxGeometry>
        </mxCell>
        <mxCell id="zIWtXSJmv5g0xzUhmJKU-8" value="implements" style="edgeLabel;html=1;align=center;verticalAlign=top;resizable=0;points=[];" vertex="1" connectable="0" parent="zIWtXSJmv5g0xzUhmJKU-7">
          <mxGeometry x="-0.1443" y="-4" relative="1" as="geometry">
            <mxPoint y="-7" as="offset" />
          </mxGeometry>
        </mxCell>
        <mxCell id="zIWtXSJmv5g0xzUhmJKU-9" value="Operator" style="swimlane;fontStyle=1;align=center;verticalAlign=top;childLayout=stackLayout;horizontal=1;startSize=26;horizontalStack=0;resizeParent=1;resizeParentMax=0;resizeLast=0;collapsible=1;marginBottom=0;whiteSpace=wrap;html=1;" vertex="1" parent="1">
          <mxGeometry x="630" y="150" width="160" height="34" as="geometry" />
        </mxCell>
        <mxCell id="zIWtXSJmv5g0xzUhmJKU-10" value="" style="line;strokeWidth=1;fillColor=none;align=left;verticalAlign=middle;spacingTop=-1;spacingLeft=3;spacingRight=3;rotatable=0;labelPosition=right;points=[];portConstraint=eastwest;strokeColor=inherit;" vertex="1" parent="zIWtXSJmv5g0xzUhmJKU-9">
          <mxGeometry y="26" width="160" height="8" as="geometry" />
        </mxCell>
        <mxCell id="zIWtXSJmv5g0xzUhmJKU-12" value="ClimateParameter" style="swimlane;fontStyle=1;align=center;verticalAlign=top;childLayout=stackLayout;horizontal=1;startSize=26;horizontalStack=0;resizeParent=1;resizeParentMax=0;resizeLast=0;collapsible=1;marginBottom=0;whiteSpace=wrap;html=1;" vertex="1" parent="1">
          <mxGeometry x="630" y="376" width="160" height="34" as="geometry" />
        </mxCell>
        <mxCell id="zIWtXSJmv5g0xzUhmJKU-13" value="" style="line;strokeWidth=1;fillColor=none;align=left;verticalAlign=middle;spacingTop=-1;spacingLeft=3;spacingRight=3;rotatable=0;labelPosition=right;points=[];portConstraint=eastwest;strokeColor=inherit;" vertex="1" parent="zIWtXSJmv5g0xzUhmJKU-12">
          <mxGeometry y="26" width="160" height="8" as="geometry" />
        </mxCell>
        <mxCell id="zIWtXSJmv5g0xzUhmJKU-14" value="MonitoringCenter" style="swimlane;fontStyle=1;align=center;verticalAlign=top;childLayout=stackLayout;horizontal=1;startSize=26;horizontalStack=0;resizeParent=1;resizeParentMax=0;resizeLast=0;collapsible=1;marginBottom=0;whiteSpace=wrap;html=1;" vertex="1" parent="1">
          <mxGeometry x="630" y="220" width="160" height="34" as="geometry" />
        </mxCell>
        <mxCell id="zIWtXSJmv5g0xzUhmJKU-15" value="" style="line;strokeWidth=1;fillColor=none;align=left;verticalAlign=middle;spacingTop=-1;spacingLeft=3;spacingRight=3;rotatable=0;labelPosition=right;points=[];portConstraint=eastwest;strokeColor=inherit;" vertex="1" parent="zIWtXSJmv5g0xzUhmJKU-14">
          <mxGeometry y="26" width="160" height="8" as="geometry" />
        </mxCell>
        <mxCell id="zIWtXSJmv5g0xzUhmJKU-16" value="Location" style="swimlane;fontStyle=1;align=center;verticalAlign=top;childLayout=stackLayout;horizontal=1;startSize=26;horizontalStack=0;resizeParent=1;resizeParentMax=0;resizeLast=0;collapsible=1;marginBottom=0;whiteSpace=wrap;html=1;" vertex="1" parent="1">
          <mxGeometry x="630" y="290" width="160" height="34" as="geometry" />
        </mxCell>
        <mxCell id="zIWtXSJmv5g0xzUhmJKU-17" value="" style="line;strokeWidth=1;fillColor=none;align=left;verticalAlign=middle;spacingTop=-1;spacingLeft=3;spacingRight=3;rotatable=0;labelPosition=right;points=[];portConstraint=eastwest;strokeColor=inherit;" vertex="1" parent="zIWtXSJmv5g0xzUhmJKU-16">
          <mxGeometry y="26" width="160" height="8" as="geometry" />
        </mxCell>
        <mxCell id="zIWtXSJmv5g0xzUhmJKU-18" value="Coordinates" style="swimlane;fontStyle=1;align=center;verticalAlign=top;childLayout=stackLayout;horizontal=1;startSize=26;horizontalStack=0;resizeParent=1;resizeParentMax=0;resizeLast=0;collapsible=1;marginBottom=0;whiteSpace=wrap;html=1;" vertex="1" parent="1">
          <mxGeometry x="630" y="90" width="160" height="34" as="geometry" />
        </mxCell>
        <mxCell id="zIWtXSJmv5g0xzUhmJKU-19" value="" style="line;strokeWidth=1;fillColor=none;align=left;verticalAlign=middle;spacingTop=-1;spacingLeft=3;spacingRight=3;rotatable=0;labelPosition=right;points=[];portConstraint=eastwest;strokeColor=inherit;" vertex="1" parent="zIWtXSJmv5g0xzUhmJKU-18">
          <mxGeometry y="26" width="160" height="8" as="geometry" />
        </mxCell>
        <mxCell id="zIWtXSJmv5g0xzUhmJKU-20" value="Use" style="endArrow=open;endSize=12;dashed=1;html=1;rounded=0;exitX=1;exitY=0.25;exitDx=0;exitDy=0;entryX=0;entryY=0.5;entryDx=0;entryDy=0;" edge="1" parent="1" source="zIWtXSJmv5g0xzUhmJKU-1" target="zIWtXSJmv5g0xzUhmJKU-18">
          <mxGeometry width="160" relative="1" as="geometry">
            <mxPoint x="550" y="30" as="sourcePoint" />
            <mxPoint x="710" y="30" as="targetPoint" />
          </mxGeometry>
        </mxCell>
        <mxCell id="zIWtXSJmv5g0xzUhmJKU-21" value="Use" style="endArrow=open;endSize=12;dashed=1;html=1;rounded=0;exitX=1.002;exitY=0.37;exitDx=0;exitDy=0;exitPerimeter=0;entryX=0;entryY=0.5;entryDx=0;entryDy=0;" edge="1" parent="1" source="zIWtXSJmv5g0xzUhmJKU-1" target="zIWtXSJmv5g0xzUhmJKU-9">
          <mxGeometry width="160" relative="1" as="geometry">
            <mxPoint x="560" y="480" as="sourcePoint" />
            <mxPoint x="720" y="480" as="targetPoint" />
          </mxGeometry>
        </mxCell>
        <mxCell id="zIWtXSJmv5g0xzUhmJKU-23" value="Use" style="endArrow=open;endSize=12;dashed=1;html=1;rounded=0;exitX=1;exitY=0.5;exitDx=0;exitDy=0;entryX=0;entryY=0.5;entryDx=0;entryDy=0;" edge="1" parent="1" source="zIWtXSJmv5g0xzUhmJKU-1" target="zIWtXSJmv5g0xzUhmJKU-14">
          <mxGeometry width="160" relative="1" as="geometry">
            <mxPoint x="580" y="380" as="sourcePoint" />
            <mxPoint x="740" y="380" as="targetPoint" />
          </mxGeometry>
        </mxCell>
        <mxCell id="zIWtXSJmv5g0xzUhmJKU-24" value="Use" style="endArrow=open;endSize=12;dashed=1;html=1;rounded=0;exitX=1.006;exitY=0.679;exitDx=0;exitDy=0;exitPerimeter=0;entryX=0;entryY=0.5;entryDx=0;entryDy=0;" edge="1" parent="1" source="zIWtXSJmv5g0xzUhmJKU-1" target="zIWtXSJmv5g0xzUhmJKU-16">
          <mxGeometry width="160" relative="1" as="geometry">
            <mxPoint x="580" y="370" as="sourcePoint" />
            <mxPoint x="740" y="370" as="targetPoint" />
          </mxGeometry>
        </mxCell>
        <mxCell id="zIWtXSJmv5g0xzUhmJKU-25" value="Use" style="endArrow=open;endSize=12;dashed=1;html=1;rounded=0;exitX=0.998;exitY=0.888;exitDx=0;exitDy=0;exitPerimeter=0;entryX=0;entryY=0.5;entryDx=0;entryDy=0;" edge="1" parent="1" source="zIWtXSJmv5g0xzUhmJKU-1" target="zIWtXSJmv5g0xzUhmJKU-12">
          <mxGeometry width="160" relative="1" as="geometry">
            <mxPoint x="530" y="460" as="sourcePoint" />
            <mxPoint x="690" y="460" as="targetPoint" />
          </mxGeometry>
        </mxCell>
        <mxCell id="zIWtXSJmv5g0xzUhmJKU-26" value="Use" style="endArrow=open;endSize=12;dashed=1;html=1;rounded=0;entryX=0.5;entryY=1;entryDx=0;entryDy=0;" edge="1" parent="1" source="zIWtXSJmv5g0xzUhmJKU-2" target="zIWtXSJmv5g0xzUhmJKU-12">
          <mxGeometry width="160" relative="1" as="geometry">
            <mxPoint x="670" y="500" as="sourcePoint" />
            <mxPoint x="830" y="500" as="targetPoint" />
          </mxGeometry>
        </mxCell>
        <mxCell id="zIWtXSJmv5g0xzUhmJKU-27" value="Use" style="endArrow=open;endSize=12;dashed=1;html=1;rounded=0;exitX=0.396;exitY=1;exitDx=0;exitDy=0;exitPerimeter=0;entryX=0.352;entryY=0;entryDx=0;entryDy=0;entryPerimeter=0;" edge="1" parent="1" source="zIWtXSJmv5g0xzUhmJKU-1" target="zIWtXSJmv5g0xzUhmJKU-2">
          <mxGeometry width="160" relative="1" as="geometry">
            <mxPoint x="430" y="490" as="sourcePoint" />
            <mxPoint x="590" y="490" as="targetPoint" />
          </mxGeometry>
        </mxCell>
        <mxCell id="zIWtXSJmv5g0xzUhmJKU-28" value="DatabaseServiceImpl" style="swimlane;fontStyle=1;align=center;verticalAlign=top;childLayout=stackLayout;horizontal=1;startSize=26;horizontalStack=0;resizeParent=1;resizeParentMax=0;resizeLast=0;collapsible=1;marginBottom=0;whiteSpace=wrap;html=1;" vertex="1" parent="1">
          <mxGeometry x="-550" y="80" width="480" height="310" as="geometry" />
        </mxCell>
        <mxCell id="zIWtXSJmv5g0xzUhmJKU-29" value="" style="line;strokeWidth=1;fillColor=none;align=left;verticalAlign=middle;spacingTop=-1;spacingLeft=3;spacingRight=3;rotatable=0;labelPosition=right;points=[];portConstraint=eastwest;strokeColor=inherit;" vertex="1" parent="zIWtXSJmv5g0xzUhmJKU-28">
          <mxGeometry y="26" width="480" height="8" as="geometry" />
        </mxCell>
        <mxCell id="zIWtXSJmv5g0xzUhmJKU-30" value="&lt;p style=&quot;margin: 0px 0px 0px 4px;&quot;&gt;+&amp;nbsp;&lt;span style=&quot;white-space: pre;&quot;&gt;registerClientForLocation&lt;/span&gt;&lt;span style=&quot;white-space: pre;&quot;&gt;(&lt;/span&gt;&lt;span style=&quot;white-space: pre;&quot;&gt;IClient&lt;/span&gt;&lt;span style=&quot;white-space: pre;&quot;&gt; &lt;/span&gt;&lt;span style=&quot;white-space: pre;&quot;&gt;client&lt;/span&gt;&lt;span style=&quot;white-space: pre;&quot;&gt;, &lt;/span&gt;&lt;span style=&quot;white-space: pre;&quot;&gt;Location&lt;/span&gt;&lt;span style=&quot;white-space: pre;&quot;&gt; &lt;/span&gt;&lt;span style=&quot;white-space: pre;&quot;&gt;l&lt;/span&gt;&lt;span style=&quot;white-space: pre;&quot;&gt;): &lt;/span&gt;&lt;span style=&quot;white-space: pre;&quot;&gt;void&lt;/span&gt;&lt;span style=&quot;white-space: pre;&quot;&gt; &lt;/span&gt;&lt;/p&gt;&lt;p style=&quot;margin: 0px 0px 0px 4px;&quot;&gt;+ unregisterClientForLocation(IClient client): void&lt;br&gt;+ operatorExists(String username): Operator&lt;br&gt;+ pushOperator(Operator o): boolean&lt;br&gt;+ isOperatorEnabledForLocation(String username, Location l): boolean&lt;br&gt;+ getMonitoringCenterForOperator(String username): MonitoringCenter&lt;br&gt;+ filterLocationsByName(String filterOnName): ArrayList&amp;lt;Location&amp;gt;&lt;br&gt;+ filterLocationsByCoordinates(Coordinates coordinates): ArrayList&amp;lt;Location&amp;gt;&lt;br&gt;+ locationExists(Location l): boolean&lt;br&gt;+ getLocationsFromMonitoringCenter(String mc_id): ArrayList&amp;lt;Location&amp;gt;&lt;br&gt;+ getClimateParameterForDate(Location l, LocalDate date): ClimateParameter&lt;br&gt;+ pushClimateParameter(ClimateParameter p): boolean&lt;br&gt;+ getClimateParameterHistory(Location l): ArrayList&amp;lt;ClimateParameter&amp;gt;&lt;br&gt;+ getMonitoringCenterFromName(String name): MonitoringCenter&lt;br&gt;+ pushMonitoringCenter(MonitoringCenter c, ArrayList&amp;lt;String&amp;gt; monitoredAreas): String&lt;br&gt;+ isMonitoringCentersTableEmpty(): boolean&lt;br&gt;+ getAllMonitoringCenters(): ArrayList&amp;lt;MonitoringCenter&amp;gt;&lt;br&gt;+ addLocationToMonitoringCenter(Location l, MonitoringCenter mc): boolean&lt;/p&gt;" style="text;strokeColor=none;fillColor=none;align=left;verticalAlign=top;spacingLeft=4;spacingRight=4;overflow=hidden;rotatable=0;points=[[0,0.5],[1,0.5]];portConstraint=eastwest;whiteSpace=wrap;html=1;" vertex="1" parent="zIWtXSJmv5g0xzUhmJKU-28">
          <mxGeometry y="34" width="480" height="276" as="geometry" />
        </mxCell>
        <mxCell id="zIWtXSJmv5g0xzUhmJKU-31" value="" style="endArrow=block;dashed=1;endFill=0;endSize=12;html=1;rounded=0;exitX=1.002;exitY=0.442;exitDx=0;exitDy=0;exitPerimeter=0;entryX=0;entryY=0.5;entryDx=0;entryDy=0;" edge="1" parent="1" source="zIWtXSJmv5g0xzUhmJKU-30" target="zIWtXSJmv5g0xzUhmJKU-1">
          <mxGeometry width="160" relative="1" as="geometry">
            <mxPoint x="-43" y="511" as="sourcePoint" />
            <mxPoint x="220" y="510" as="targetPoint" />
          </mxGeometry>
        </mxCell>
        <mxCell id="zIWtXSJmv5g0xzUhmJKU-32" value="implements" style="edgeLabel;html=1;align=center;verticalAlign=top;resizable=0;points=[];" vertex="1" connectable="0" parent="zIWtXSJmv5g0xzUhmJKU-31">
          <mxGeometry x="-0.1443" y="-4" relative="1" as="geometry">
            <mxPoint y="-7" as="offset" />
          </mxGeometry>
        </mxCell>
      </root>
    </mxGraphModel>
  </diagram>
</mxfile>
